<?xml version="1.0" encoding="UTF-8"?>
<svg viewBox="0 0 500 300" xmlns="http://www.w3.org/2000/svg">
  <!-- Clean background -->
  <rect width="500" height="300" fill="#FFFFFF" rx="10" ry="10"/>
  
  <!-- Abstract data visualization element -->
  <g opacity="0.1">
    <path d="M50,220 Q125,120 200,180 T350,150 T450,80" stroke="#6B7D8F" stroke-width="3" fill="none"/>
    <path d="M50,200 Q125,140 200,200 T350,170 T450,100" stroke="#C8A2C8" stroke-width="3" fill="none"/>
    <path d="M50,180 Q125,160 200,220 T350,190 T450,120" stroke="#9ACD32" stroke-width="3" fill="none"/>
  </g>
  
  <!-- Modern O -->
  <path d="M100,110 A50,50 0 1,1 100,210 A50,50 0 1,1 100,110 Z M100,130 A30,30 0 1,0 100,190 A30,30 0 1,0 100,130 Z" 
        fill="#6B7D8F"/>
  
  <!-- Modern M -->
  <path d="M170,110 L190,110 L220,170 L250,110 L270,110 L270,210 L250,210 L250,140 L220,195 L190,140 L190,210 L170,210 Z" 
        fill="#040404"/>
  
  <!-- Modern I -->
  <rect x="300" y="110" width="20" height="100" fill="#C8A2C8"/>
  
  <!-- Grid dots pattern for analytics feel -->
  <g opacity="0.5">
    <circle cx="370" cy="110" r="2" fill="#6B7D8F"/>
    <circle cx="390" cy="110" r="2" fill="#6B7D8F"/>
    <circle cx="410" cy="110" r="2" fill="#6B7D8F"/>
    <circle cx="430" cy="110" r="2" fill="#6B7D8F"/>
    
    <circle cx="370" cy="130" r="2" fill="#6B7D8F"/>
    <circle cx="390" cy="130" r="4" fill="#C8A2C8"/>
    <circle cx="410" cy="130" r="2" fill="#6B7D8F"/>
    <circle cx="430" cy="130" r="2" fill="#6B7D8F"/>
    
    <circle cx="370" cy="150" r="2" fill="#6B7D8F"/>
    <circle cx="390" cy="150" r="2" fill="#6B7D8F"/>
    <circle cx="410" cy="150" r="5" fill="#C8A2C8"/>
    <circle cx="430" cy="150" r="2" fill="#6B7D8F"/>
    
    <circle cx="370" cy="170" r="3" fill="#C8A2C8"/>
    <circle cx="390" cy="170" r="2" fill="#6B7D8F"/>
    <circle cx="410" cy="170" r="2" fill="#6B7D8F"/>
    <circle cx="430" cy="170" r="6" fill="#C8A2C8"/>
    
    <circle cx="370" cy="190" r="2" fill="#6B7D8F"/>
    <circle cx="390" cy="190" r="5" fill="#C8A2C8"/>
    <circle cx="410" cy="190" r="2" fill="#6B7D8F"/>
    <circle cx="430" cy="190" r="2" fill="#6B7D8F"/>
  </g>
  
  <!-- Sleek bar chart element -->
  <g transform="translate(365, 200) scale(0.8)">
    <rect x="0" y="-15" width="10" height="15" fill="#9ACD32"/>
    <rect x="15" y="-40" width="10" height="40" fill="#C8A2C8"/>
    <rect x="30" y="-25" width="10" height="25" fill="#6B7D8F"/>
    <rect x="45" y="-50" width="10" height="50" fill="#9ACD32"/>
    <rect x="60" y="-30" width="10" height="30" fill="#C8A2C8"/>
    <rect x="75" y="-45" width="10" height="45" fill="#6B7D8F"/>
  </g>
  
  <!-- Company name - clean, professional font -->
  <text x="250" y="250" font-family="Arial, sans-serif" font-size="16" font-weight="300" text-anchor="middle" fill="#040404">OPEN MARKET INTELLIGENCE</text>
  <text x="250" y="270" font-family="Arial, sans-serif" font-size="12" font-weight="300" text-anchor="middle" fill="#6B7D8F">Analytics & Market Research</text>
</svg>